<?xml version="1.0" encoding="UTF-8" standalone="no"?>
<svg viewBox="0 0 103 67" version="1.1" xmlns="http://www.w3.org/2000/svg" xmlns:xlink="http://www.w3.org/1999/xlink" xmlns:sketch="http://www.bohemiancoding.com/sketch/ns">
    <g id="Page-1" stroke="none" stroke-width="1" fill="none" fill-rule="evenodd" sketch:type="MSPage">
        <g id="Group" sketch:type="MSLayerGroup">
            <path d="M72.875,27.287 C72.875,34.826 67.165,38.624 59.425,42.842 C49.273,48.374 43.608,51.783 31.458,51.644 C13.306,51.424 6.472,43.81 1.537,29.924 C-5.65,9.706 17.412,0.143 34.283,0.143 C35.938,0.143 37.583,0.229 39.209,0.392 C53.497,1.984 72.498,11.076 72.875,27.287" id="Fill-539" fill="#B88358" sketch:type="MSShapeGroup"></path>
            <path d="M72.052,22.022 C69.537,21.431 66.899,21.115 64.179,21.115 C47.024,21.115 33.118,33.615 33.118,49.034 C33.118,49.912 33.165,50.78 33.254,51.637 C44.192,51.432 49.787,48.094 59.425,42.842 C67.165,38.624 72.875,34.826 72.875,27.287 C72.832,25.439 72.544,23.684 72.052,22.022" id="Fill-540" fill="#A67349" sketch:type="MSShapeGroup"></path>
            <path d="M19.03,31.523 C20.276,31.523 21.285,32.533 21.285,33.778 C21.285,35.023 20.276,36.032 19.03,36.032 C17.785,36.032 16.776,35.023 16.776,33.778 C16.776,32.533 17.785,31.523 19.03,31.523" id="Fill-541" fill="#916744" sketch:type="MSShapeGroup"></path>
            <path d="M12.303,14.894 C13.122,14.894 13.787,15.558 13.787,16.377 C13.787,17.197 13.122,17.861 12.303,17.861 C11.482,17.861 10.818,17.197 10.818,16.377 C10.818,15.558 11.482,14.894 12.303,14.894" id="Fill-542" fill="#916744" sketch:type="MSShapeGroup"></path>
            <path d="M27.384,18.003 C28.279,18.003 29.006,18.73 29.006,19.625 C29.006,20.522 28.279,21.248 27.384,21.248 C26.487,21.248 25.761,20.522 25.761,19.625 C25.761,18.73 26.487,18.003 27.384,18.003" id="Fill-543" fill="#916744" sketch:type="MSShapeGroup"></path>
            <path d="M27.847,5.429 C28.513,5.429 29.051,5.968 29.051,6.633 C29.051,7.298 28.513,7.837 27.847,7.837 C27.183,7.837 26.644,7.298 26.644,6.633 C26.644,5.968 27.183,5.429 27.847,5.429" id="Fill-544" fill="#916744" sketch:type="MSShapeGroup"></path>
            <path d="M44.319,7.383 C45.187,7.383 45.891,8.086 45.891,8.953 C45.891,9.82 45.187,10.523 44.319,10.523 C43.452,10.523 42.749,9.82 42.749,8.953 C42.749,8.086 43.452,7.383 44.319,7.383" id="Fill-545" fill="#916744" sketch:type="MSShapeGroup"></path>
            <path d="M59.168,13.947 C60.255,13.947 61.135,14.827 61.135,15.914 C61.135,17 60.255,17.88 59.168,17.88 C58.082,17.88 57.201,17 57.201,15.914 C57.201,14.827 58.082,13.947 59.168,13.947" id="Fill-546" fill="#916744" sketch:type="MSShapeGroup"></path>
            <path d="M42.929,20.843 C43.71,20.843 44.343,21.477 44.343,22.258 C44.343,23.039 43.71,23.672 42.929,23.672 C42.147,23.672 41.514,23.039 41.514,22.258 C41.514,21.477 42.147,20.843 42.929,20.843" id="Fill-547" fill="#916744" sketch:type="MSShapeGroup"></path>
            <path d="M42.695,38.798 C43.639,38.798 44.402,39.563 44.402,40.507 C44.402,41.45 43.639,42.215 42.695,42.215 C41.751,42.215 40.986,41.45 40.986,40.507 C40.986,39.563 41.751,38.798 42.695,38.798" id="Fill-548" fill="#916744" sketch:type="MSShapeGroup"></path>
            <path d="M77.44,20.252 C94.399,20.934 102.305,31.44 102.811,43.058 C103.517,59.235 92.466,66.667 77.16,66.828 C61.779,66.99 49.934,59.929 50.216,43.194 C50.476,27.841 61.556,19.614 77.44,20.252" id="Fill-549" fill="#C48D60" sketch:type="MSShapeGroup"></path>
            <path d="M55.026,58.641 L101.449,35.827 C102.253,38.13 102.702,40.567 102.811,43.058 C103.517,59.235 92.466,66.667 77.16,66.828 C67.852,66.926 59.84,64.377 55.026,58.641" id="Fill-550" fill="#AD7A4F" sketch:type="MSShapeGroup"></path>
            <path d="M77.245,21.392 C93.078,22.028 101.135,32.242 101.607,43.088 C102.266,58.191 91.408,65.131 77.118,65.281 C62.759,65.432 51.7,58.84 51.963,43.217 C52.205,28.883 62.414,20.796 77.245,21.392" id="Fill-551" fill="#FCDE83" sketch:type="MSShapeGroup"></path>
            <path d="M56.635,57.851 L100.294,36.396 C101.069,38.543 101.508,40.802 101.607,43.088 C102.266,58.191 91.408,65.131 77.118,65.281 C68.544,65.371 61.147,63.056 56.635,57.851" id="Fill-552" fill="#F6D27A" sketch:type="MSShapeGroup"></path>
            <path d="M77.105,28.228 C88.003,28.665 93.549,35.695 93.874,43.161 C94.327,53.558 86.854,58.333 77.019,58.437 C67.135,58.54 59.522,54.003 59.704,43.249 C59.87,33.384 66.897,27.817 77.105,28.228" id="Fill-553" fill="#F8D074" sketch:type="MSShapeGroup"></path>
            <path d="M80.288,43.727 C78.533,44.3 77.897,44.959 77.315,46.399 C77.263,46.522 77.091,46.546 77.019,46.411 C76.21,44.646 74.91,44.076 73.315,43.723 C73.219,43.702 73.179,43.56 73.309,43.511 C75.164,43.013 76.339,42.228 76.981,40.273 C77.045,40.091 77.278,40.106 77.322,40.273 C77.831,42.144 78.882,42.964 80.287,43.508 C80.41,43.561 80.378,43.695 80.288,43.727" id="Fill-554" fill="#EDBE66" sketch:type="MSShapeGroup"></path>
            <path d="M63.865,54.297 L93.361,39.803 C93.653,40.898 93.824,42.024 93.874,43.161 C94.327,53.558 86.854,58.333 77.019,58.437 C71.682,58.492 67.009,57.195 63.865,54.297" id="Fill-555" fill="#F0C96E" sketch:type="MSShapeGroup"></path>
        </g>
    </g>
</svg>
