<?xml version="1.0" encoding="UTF-8" standalone="no"?>
<svg viewBox="0 0 99 74" version="1.1" xmlns="http://www.w3.org/2000/svg" xmlns:xlink="http://www.w3.org/1999/xlink" xmlns:sketch="http://www.bohemiancoding.com/sketch/ns">
    <g id="Page-1" stroke="none" stroke-width="1" fill="none" fill-rule="evenodd" sketch:type="MSPage">
        <g id="Group" sketch:type="MSLayerGroup">
            <path d="M37.078,16.315 C44.388,12.567 42.098,4.102 41.13,0.715 C40.354,7.006 37.946,10.677 35.183,12.976 C36.175,9.302 35.064,5.242 34.464,3.14 C34.07,8.343 32.356,11.753 30.17,14.077 L30.352,6.565 C30.352,5.871 29.594,5.524 28.837,5.524 C28.079,5.524 27.321,5.871 27.321,6.565 L27.504,14.077 C25.317,11.753 23.603,8.343 23.21,3.14 C22.609,5.242 21.498,9.302 22.491,12.976 C19.728,10.677 17.319,7.006 16.543,0.715 C15.576,4.102 13.285,12.567 20.596,16.315 L28.837,19.952 L37.078,16.315" id="Fill-26" fill="#507310" sketch:type="MSShapeGroup"></path>
            <path d="M28.837,63.779 C43.361,63.779 56.955,50.505 57.56,36.838 C58.109,23.361 48.004,14.185 33.5,16.628 C31.259,16.955 30.048,17.12 28.837,17.12 C27.625,17.12 26.415,16.955 24.173,16.628 C9.669,14.185 -0.436,23.361 0.113,36.838 C0.719,50.505 14.312,63.779 28.837,63.779" id="Fill-27" fill="#E52711" sketch:type="MSShapeGroup"></path>
            <path d="M54.62,24.788 C46.85,24.002 39.528,27.986 35.157,35.913 C30.858,43.777 31.182,54.253 35.2,62.942 C47.108,59.83 57.044,48.478 57.56,36.838 C57.748,32.218 56.684,28.103 54.62,24.788" id="Fill-28" fill="#D11E0B" sketch:type="MSShapeGroup"></path>
            <path d="M56.325,69.356 C68.749,76.88 87.252,72.568 94.85,61.192 C102.3,49.949 98.411,36.865 84.74,31.441 C83.968,31.115 83.285,30.914 82.679,30.759 C81.484,30.75 80.677,30.619 80.024,30.224 C79.372,29.828 78.877,29.171 78.321,28.12 C77.902,27.655 77.408,27.143 76.761,26.609 C65.621,17.006 52.223,19.621 45.711,31.433 C39.15,43.437 43.901,61.832 56.325,69.356" id="Fill-29" fill="#FF503D" sketch:type="MSShapeGroup"></path>
            <path d="M47.93,61.098 L94.445,38.239 C99.726,44.645 100.037,53.364 94.85,61.191 C87.252,72.568 68.749,76.88 56.325,69.356 C52.928,67.299 50.105,64.428 47.93,61.098" id="Fill-30" fill="#FC3B26" sketch:type="MSShapeGroup"></path>
            <path d="M57.265,67.804 C68.74,74.753 86.09,70.927 93.108,60.42 C99.99,50.035 95.824,38.311 83.196,33.302 C81.269,32.488 80.233,32.039 79.276,31.459 C78.319,30.879 77.441,30.17 75.827,28.839 C65.538,19.969 53.217,21.709 47.203,32.619 C41.143,43.706 45.79,60.854 57.265,67.804" id="Fill-31" fill="#FF9173" sketch:type="MSShapeGroup"></path>
            <path d="M49.562,60.295 L92.165,39.359 C97.325,45.183 97.937,53.132 93.108,60.42 C86.09,70.927 68.74,74.753 57.265,67.803 C54.178,65.934 51.586,63.325 49.562,60.295" id="Fill-32" fill="#FF7954" sketch:type="MSShapeGroup"></path>
            <path d="M82.68,30.759 C79.705,33.466 76.08,37.812 72.402,42.81 C75.128,37.235 77.3,32.01 78.32,28.119 C79.034,28.912 79.528,29.569 80.181,29.965 C80.834,30.36 81.646,30.493 82.68,30.759" id="Fill-33" fill="#BBC960" sketch:type="MSShapeGroup"></path>
            <path d="M56.453,61.342 C49.82,54.95 47.574,43.706 51.737,36.088 C57.108,26.45 69.448,27.861 70.424,35.012 C70.584,35.944 70.691,36.962 70.775,37.967 C70.874,39.606 69.556,40.362 68.615,39.052 C67.883,38.033 67.144,37.095 66.126,36.512 C58.627,32.213 52.269,48.764 61.341,56.636 C61.86,57.086 61.97,57.508 61.509,58.142 C60.708,59.266 59.851,60.356 58.95,61.419 C58.222,62.198 57.342,62.147 56.453,61.342" id="Fill-34" fill="#FE3F07" sketch:type="MSShapeGroup"></path>
            <path d="M67.391,37.526 C61.1,26.024 45.181,44.26 60.085,55.381 C52.915,47.146 59.006,32.43 66.126,36.512 C66.599,36.783 67.011,37.13 67.391,37.526" id="Fill-35" fill="#F03A07" sketch:type="MSShapeGroup"></path>
            <path d="M63.368,65.53 C72.105,68.446 83.111,65.228 87.932,58.009 C93.986,48.784 87.019,38.502 80.229,40.949 C79.329,41.239 78.376,41.616 77.447,42.008 C75.95,42.679 75.89,44.198 77.486,44.424 C78.728,44.601 79.902,44.822 80.891,45.454 C88.174,50.108 76.453,63.41 65.273,59.018 C64.634,58.766 64.209,58.865 63.861,59.566 C63.236,60.797 62.667,62.062 62.142,63.353 C61.79,64.358 62.243,65.115 63.368,65.53" id="Fill-36" fill="#FE3F07" sketch:type="MSShapeGroup"></path>
            <path d="M79.405,44.803 C92.513,45.05 83.728,67.605 66.967,59.549 C77.587,62.087 87.807,49.873 80.891,45.454 C80.432,45.16 79.933,44.956 79.405,44.803" id="Fill-37" fill="#F03A07" sketch:type="MSShapeGroup"></path>
            <path d="M56.376,39.978 C56.633,39.44 55.079,37.815 54.327,37.455 C53.575,37.095 52.724,37.306 52.363,38.059 C52.004,38.811 52.373,39.606 53.126,39.965 C53.878,40.326 56.118,40.517 56.376,39.978" id="Fill-38" fill="#FACA66" sketch:type="MSShapeGroup"></path>
            <path d="M59.32,35.851 C59.676,35.587 59.22,33.98 58.851,33.482 C58.482,32.984 57.851,32.827 57.352,33.196 C56.855,33.565 56.821,34.215 57.19,34.713 C57.559,35.211 58.963,36.115 59.32,35.851" id="Fill-39" fill="#FACA66" sketch:type="MSShapeGroup"></path>
            <path d="M54.954,45.057 C54.946,44.614 53.373,44.053 52.753,44.065 C52.134,44.075 51.639,44.499 51.65,45.119 C51.662,45.738 52.172,46.143 52.791,46.131 C53.411,46.12 54.962,45.501 54.954,45.057" id="Fill-40" fill="#FACA66" sketch:type="MSShapeGroup"></path>
            <path d="M56.758,52.26 C56.56,51.697 54.313,51.641 53.525,51.916 C52.738,52.191 52.284,52.941 52.559,53.728 C52.834,54.515 53.656,54.818 54.443,54.543 C55.231,54.269 56.955,52.824 56.758,52.26" id="Fill-41" fill="#FACA66" sketch:type="MSShapeGroup"></path>
            <path d="M64.136,34.629 C64.574,34.691 65.38,33.229 65.468,32.615 C65.555,32.002 65.216,31.445 64.603,31.358 C63.99,31.271 63.509,31.708 63.421,32.322 C63.333,32.936 63.697,34.566 64.136,34.629" id="Fill-42" fill="#FACA66" sketch:type="MSShapeGroup"></path>
            <path d="M59.152,56.826 C58.867,56.487 57.291,57.041 56.817,57.439 C56.343,57.837 56.225,58.479 56.623,58.953 C57.022,59.427 57.673,59.42 58.147,59.022 C58.622,58.623 59.438,57.166 59.152,56.826" id="Fill-43" fill="#FACA66" sketch:type="MSShapeGroup"></path>
            <path d="M75.108,61.204 C74.686,61.335 74.585,63.003 74.77,63.595 C74.954,64.186 75.498,64.544 76.09,64.359 C76.681,64.175 76.928,63.573 76.744,62.981 C76.56,62.389 75.532,61.072 75.108,61.204" id="Fill-44" fill="#FACA66" sketch:type="MSShapeGroup"></path>
            <path d="M79.551,58.431 C79.184,58.676 79.559,60.304 79.902,60.82 C80.246,61.335 80.869,61.523 81.385,61.18 C81.9,60.836 81.966,60.189 81.622,59.673 C81.279,59.157 79.921,58.185 79.551,58.431" id="Fill-45" fill="#FACA66" sketch:type="MSShapeGroup"></path>
            <path d="M83.017,54.898 C82.737,55.424 84.222,57.113 84.959,57.504 C85.695,57.896 86.554,57.72 86.945,56.983 C87.336,56.247 87.001,55.438 86.264,55.046 C85.527,54.655 83.297,54.371 83.017,54.898" id="Fill-46" fill="#FACA66" sketch:type="MSShapeGroup"></path>
            <path d="M85.435,51.408 C85.45,51.851 87.029,52.394 87.649,52.375 C88.268,52.356 88.757,51.926 88.738,51.307 C88.719,50.688 88.205,50.289 87.585,50.308 C86.966,50.327 85.422,50.965 85.435,51.408" id="Fill-47" fill="#FACA66" sketch:type="MSShapeGroup"></path>
            <path d="M68.339,60.926 C67.753,60.819 66.591,62.744 66.44,63.564 C66.289,64.384 66.715,65.15 67.536,65.301 C68.356,65.452 69.026,64.888 69.178,64.067 C69.329,63.247 68.927,61.035 68.339,60.927 L68.339,60.926" id="Fill-48" fill="#FACA66" sketch:type="MSShapeGroup"></path>
            <path d="M83.377,45.82 C83.718,46.103 85.171,45.279 85.567,44.803 C85.963,44.326 85.965,43.675 85.489,43.279 C85.013,42.883 84.373,43.004 83.977,43.481 C83.581,43.958 83.036,45.537 83.377,45.82" id="Fill-49" fill="#FACA66" sketch:type="MSShapeGroup"></path>
            <path d="M64.856,55.27 C75.45,61.639 83.45,49.735 76.543,46.753 C74.278,45.776 72.4,46.269 70.869,45.341 C69.338,44.414 68.904,42.521 66.989,40.967 C61.147,36.227 54.284,48.867 64.856,55.27" id="Fill-50" fill="#FFB39E" sketch:type="MSShapeGroup"></path>
            <path d="M62.82,53.78 L76.838,46.892 C83.212,50.083 75.293,61.544 64.856,55.27 C64.086,54.804 63.412,54.303 62.82,53.78" id="Fill-51" fill="#FCAD97" sketch:type="MSShapeGroup"></path>
        </g>
    </g>
</svg>
